<svg width="14" height="14" viewBox="0 0 14 14" fill="none" xmlns="http://www.w3.org/2000/svg">
<g clip-path="url(#clip0_1222_31611)">
<path d="M6.86255 0.858398V1.50165" stroke="black" stroke-linecap="round" stroke-linejoin="round"/>
<path d="M6.8623 4.69629V6.23138" stroke="black" stroke-linecap="round" stroke-linejoin="round"/>
<path d="M6.86255 12.2224V12.8657" stroke="black" stroke-linecap="round" stroke-linejoin="round"/>
<path d="M0.858765 6.86206H1.50202" stroke="black" stroke-linecap="round" stroke-linejoin="round"/>
<path d="M12.2229 6.86206H12.8662" stroke="black" stroke-linecap="round" stroke-linejoin="round"/>
<path d="M11.1498 2.57373L10.7219 3.00164" stroke="black" stroke-linecap="round" stroke-linejoin="round"/>
<path d="M3.00201 10.7214L2.5741 11.1493" stroke="black" stroke-linecap="round" stroke-linejoin="round"/>
<path d="M2.5741 2.57373L3.00201 3.00164" stroke="black" stroke-linecap="round" stroke-linejoin="round"/>
<path d="M10.7219 10.7214L11.1498 11.1493" stroke="black" stroke-linecap="round" stroke-linejoin="round"/>
<path d="M6.861 10.723C8.99337 10.723 10.722 8.99435 10.722 6.86198C10.722 4.72961 8.99337 3.00098 6.861 3.00098C4.72863 3.00098 3 4.72961 3 6.86198C3 8.99435 4.72863 10.723 6.861 10.723Z" stroke="black" stroke-linecap="round" stroke-linejoin="round"/>
<path d="M5.44983 5.77856C5.22846 6.07335 5.09729 6.43974 5.09729 6.83676C5.09729 7.81095 5.88702 8.60068 6.8612 8.60068C7.83539 8.60068 8.62512 7.81095 8.62512 6.83676C8.62512 6.43974 8.49395 6.07335 8.27258 5.77856" stroke="black" stroke-linecap="round" stroke-linejoin="round"/>
</g>
<defs>
<clipPath id="clip0_1222_31611">
<rect width="14" height="14" fill="white"/>
</clipPath>
</defs>
</svg>
