<svg width="14" height="14" viewBox="0 0 14 14" fill="none" xmlns="http://www.w3.org/2000/svg">
<g clip-path="url(#clip0_1222_31717)">
<path d="M9.00001 0.5V6.5L12.59 11.07C12.7649 11.2913 12.8738 11.5574 12.9043 11.8378C12.9348 12.1182 12.8856 12.4015 12.7624 12.6552C12.6392 12.9089 12.447 13.1228 12.2078 13.2722C11.9686 13.4216 11.6921 13.5006 11.41 13.5H2.59001C2.30797 13.5006 2.03147 13.4216 1.79225 13.2722C1.55304 13.1228 1.36079 12.9089 1.23759 12.6552C1.11439 12.4015 1.06521 12.1182 1.09571 11.8378C1.12621 11.5574 1.23514 11.2913 1.41001 11.07L5.00001 6.5V0.5" stroke="black" stroke-linecap="round" stroke-linejoin="round"/>
<path d="M3.5 0.5H10.5" stroke="black" stroke-linecap="round" stroke-linejoin="round"/>
</g>
<defs>
<clipPath id="clip0_1222_31717">
<rect width="14" height="14" fill="white"/>
</clipPath>
</defs>
</svg>
