<svg width="14" height="14" viewBox="0 0 14 14" fill="none" xmlns="http://www.w3.org/2000/svg">
<g clip-path="url(#clip0_1222_31606)">
<path d="M13.5 5.5C13.5 9.09 10.55 13.5 7 13.5C3.45 13.5 0.5 9.09 0.5 5.5C0.5 1.91 3.41 0.5 7 0.5C10.59 0.5 13.5 1.91 13.5 5.5Z" stroke="black" stroke-linecap="round" stroke-linejoin="round"/>
<path d="M2.74994 4.75007C2.65983 5.16863 2.65683 5.60126 2.74113 6.02104C2.82542 6.44081 2.99522 6.83874 3.23994 7.19007C3.59127 7.43479 3.9892 7.60458 4.40897 7.68888C4.82875 7.77318 5.26138 7.77018 5.67994 7.68007C5.77006 7.2615 5.77306 6.82887 5.68876 6.40909C5.60446 5.98932 5.43467 5.59139 5.18994 5.24007C4.83862 4.99534 4.44069 4.82555 4.02092 4.74125C3.60114 4.65695 3.16851 4.65995 2.74994 4.75007Z" stroke="black" stroke-linecap="round" stroke-linejoin="round"/>
<path d="M11.25 4.75007C11.3401 5.16863 11.3431 5.60126 11.2588 6.02104C11.1745 6.44081 11.0047 6.83874 10.76 7.19007C10.4087 7.43479 10.0108 7.60458 9.59098 7.68888C9.17121 7.77318 8.73858 7.77018 8.32001 7.68007C8.2299 7.2615 8.22689 6.82887 8.31119 6.40909C8.39549 5.98932 8.56529 5.59139 8.81001 5.24007C9.16133 4.99534 9.55927 4.82555 9.97904 4.74125C10.3988 4.65695 10.8314 4.65995 11.25 4.75007Z" stroke="black" stroke-linecap="round" stroke-linejoin="round"/>
</g>
<defs>
<clipPath id="clip0_1222_31606">
<rect width="14" height="14" fill="white"/>
</clipPath>
</defs>
</svg>
