<svg width="14" height="14" viewBox="0 0 14 14" fill="none" xmlns="http://www.w3.org/2000/svg">
<g clip-path="url(#clip0_1222_31580)">
<path d="M11.5 2.5C11.5 1.96957 11.2893 1.46086 10.9142 1.08579C10.5391 0.710714 10.0304 0.5 9.5 0.5C8.96957 0.5 8.46086 0.710714 8.08579 1.08579C7.71071 1.46086 7.5 1.96957 7.5 2.5C7.50223 3.02958 7.71441 3.53665 8.09 3.91L3.91 8.09C3.53665 7.71441 3.02958 7.50223 2.5 7.5C1.96957 7.5 1.46086 7.71071 1.08579 8.08579C0.710714 8.46086 0.5 8.96957 0.5 9.5C0.5 10.0304 0.710714 10.5391 1.08579 10.9142C1.46086 11.2893 1.96957 11.5 2.5 11.5C2.5 12.0304 2.71071 12.5391 3.08579 12.9142C3.46086 13.2893 3.96957 13.5 4.5 13.5C5.03043 13.5 5.53914 13.2893 5.91421 12.9142C6.28929 12.5391 6.5 12.0304 6.5 11.5C6.49777 10.9704 6.28559 10.4634 5.91 10.09L10.09 5.91C10.4634 6.28559 10.9704 6.49777 11.5 6.5C12.0304 6.5 12.5391 6.28929 12.9142 5.91421C13.2893 5.53914 13.5 5.03043 13.5 4.5C13.5 3.96957 13.2893 3.46086 12.9142 3.08579C12.5391 2.71071 12.0304 2.5 11.5 2.5Z" stroke="black" stroke-linecap="round" stroke-linejoin="round"/>
</g>
<defs>
<clipPath id="clip0_1222_31580">
<rect width="14" height="14" fill="white"/>
</clipPath>
</defs>
</svg>
