<svg width="14" height="14" viewBox="0 0 14 14" fill="none" xmlns="http://www.w3.org/2000/svg">
<g clip-path="url(#clip0_1222_31583)">
<path d="M10.1 3.8999C11.18 4.36143 12.3947 4.39716 13.5 3.9999" stroke="black" stroke-linecap="round" stroke-linejoin="round"/>
<path d="M4 13.4999C4.3969 12.3911 4.36119 11.1735 3.9 10.0899C3.53902 9.22708 3.44135 8.27677 3.6193 7.35858C3.79724 6.44039 4.24284 5.59537 4.9 4.92988C5.57367 4.26318 6.42964 3.81084 7.36 3.62988" stroke="black" stroke-linecap="round" stroke-linejoin="round"/>
<path d="M6.59998 10.37C7.53486 10.1875 8.39451 9.7316 9.06998 9.06C9.72828 8.39523 10.1747 7.55016 10.3527 6.63168C10.5307 5.7132 10.4323 4.76257 10.07 3.9C9.61819 2.81616 9.59318 1.60152 9.99998 0.5" stroke="black" stroke-linecap="round" stroke-linejoin="round"/>
<path d="M0.5 10.0001C1.60575 9.60091 2.82236 9.64027 3.9 10.1101" stroke="black" stroke-linecap="round" stroke-linejoin="round"/>
<path d="M4.93994 4.92993L9.06994 9.05993" stroke="black" stroke-linecap="round" stroke-linejoin="round"/>
</g>
<defs>
<clipPath id="clip0_1222_31583">
<rect width="14" height="14" fill="white"/>
</clipPath>
</defs>
</svg>
