<svg width="43" height="43" viewBox="0 0 43 43" fill="none" xmlns="http://www.w3.org/2000/svg">
<path d="M29.3846 13.6154V4.15385C29.3846 2.43605 27.9486 1 26.2308 1H4.15385C2.43605 1 1 2.43605 1 4.15385V26.2308C1 27.9486 2.43605 29.3846 4.15385 29.3846H13.6154" stroke="black" stroke-linecap="round" stroke-linejoin="round"/>
<path d="M42 38.8461C42 40.5879 40.588 41.9999 38.8461 41.9999" stroke="black" stroke-linecap="round" stroke-linejoin="round"/>
<path d="M13.6154 16.7692C13.6154 15.0274 15.0274 13.6154 16.7692 13.6154" stroke="black" stroke-linecap="round" stroke-linejoin="round"/>
<path d="M38.8461 13.6154C40.588 13.6154 42 15.0274 42 16.7692" stroke="black" stroke-linecap="round" stroke-linejoin="round"/>
<path d="M13.6154 38.8461C13.6154 40.5879 15.0274 41.9999 16.7692 41.9999" stroke="black" stroke-linecap="round" stroke-linejoin="round"/>
<path d="M42 24.6539V30.9616" stroke="black" stroke-linecap="round" stroke-linejoin="round"/>
<path d="M13.6154 30.9616V24.6539" stroke="black" stroke-linecap="round" stroke-linejoin="round"/>
<path d="M24.6539 13.6154H30.9616" stroke="black" stroke-linecap="round" stroke-linejoin="round"/>
<path d="M24.6539 42H30.9616" stroke="black" stroke-linecap="round" stroke-linejoin="round"/>
<path d="M10.1738 7.53144C10.6072 7.53144 10.9586 7.18009 10.9586 6.74668C10.9586 6.31327 10.6072 5.96191 10.1738 5.96191C9.74039 5.96191 9.38904 6.31327 9.38904 6.74668C9.38904 7.18009 9.74039 7.53144 10.1738 7.53144Z" stroke="black" stroke-linecap="round" stroke-linejoin="round"/>
<path d="M7.03472 11.4553C7.25142 11.4553 7.4271 11.2796 7.4271 11.0629C7.4271 10.8462 7.25142 10.6705 7.03472 10.6705C6.81801 10.6705 6.64233 10.8462 6.64233 11.0629C6.64233 11.2796 6.81801 11.4553 7.03472 11.4553Z" stroke="black" stroke-linecap="round" stroke-linejoin="round"/>
<path d="M7.03476 8.70857C7.46817 8.70857 7.81953 8.35721 7.81953 7.9238C7.81953 7.49039 7.46817 7.13904 7.03476 7.13904C6.60135 7.13904 6.25 7.49039 6.25 7.9238C6.25 8.35721 6.60135 8.70857 7.03476 8.70857Z" stroke="black" stroke-linecap="round" stroke-linejoin="round"/>
<path d="M10.9743 13.2445C10.9655 13.0923 10.9126 12.9459 10.822 12.8233C10.7314 12.7007 10.6071 12.6071 10.4642 12.5539C10.1092 12.4372 9.80754 12.1978 9.61335 11.8786C9.41916 11.5594 9.34521 11.1814 9.40479 10.8126C9.46437 10.4437 9.65358 10.1082 9.93839 9.86643C10.2232 9.62461 10.5849 9.49232 10.9586 9.49335H12.4261C12.6777 9.49406 12.926 9.43421 13.1497 9.31887C13.3734 9.20354 13.5661 9.03608 13.7115 8.83065C13.8569 8.62521 13.9508 8.38781 13.9852 8.13848C14.0197 7.88914 13.9936 7.63519 13.9093 7.39803C13.5972 6.51672 13.0488 5.73814 12.3241 5.14737C11.5995 4.55659 10.7264 4.17634 9.80028 4.04816C8.87414 3.91999 7.93061 4.04882 7.07273 4.42057C6.21486 4.79233 5.47567 5.39271 4.93591 6.15612C4.39615 6.91954 4.07658 7.81662 4.01214 8.74935C3.94769 9.68208 4.14083 10.6146 4.57047 11.445C5.00009 12.2753 5.64969 12.9717 6.44828 13.4579C7.24687 13.9441 8.16372 14.2015 9.09868 14.2019C9.56041 14.2032 10.02 14.1399 10.4642 14.0136C10.6273 13.9679 10.7686 13.865 10.8622 13.7239C10.9558 13.5827 10.9956 13.4126 10.9743 13.2445Z" stroke="black" stroke-linecap="round" stroke-linejoin="round"/>
<path d="M28.9924 21.2977L28.0049 27.5518C27.9638 27.8118 28.1882 28.0362 28.4482 27.9952L34.7023 27.0077C35.0474 26.9532 35.3134 26.6747 35.352 26.3276L35.6742 23.4268L32.5732 20.3258L29.6725 20.6481C29.3253 20.6867 29.0468 20.9527 28.9924 21.2977Z" stroke="black" stroke-linecap="round" stroke-linejoin="round"/>
<path d="M32.5732 20.3257L34.1237 18" stroke="black" stroke-linecap="round" stroke-linejoin="round"/>
<path d="M35.6742 23.4267L38 21.8762" stroke="black" stroke-linecap="round" stroke-linejoin="round"/>
<path d="M28.3094 27.6906L31.4104 24.5896" stroke="black" stroke-linecap="round" stroke-linejoin="round"/>
<path d="M30.6351 23.8143L32.1856 25.3648" stroke="black" stroke-linecap="round" stroke-linejoin="round"/>
<path d="M17 35.1947C17.6341 34.3086 19.5554 31.7905 21.8045 30.374C23.4954 29.309 25.0923 30.7149 23.854 32.1307C22.6428 33.5154 21.0185 35.4211 20.3251 36.3673C19.6065 37.348 20.8365 38.5338 22.0677 37.405C22.8904 36.6506 23.7477 35.7828 24.6192 35.1415C25.7954 34.2761 26.8041 35.0403 26.2907 36.0158C25.9197 36.7207 25.6507 37.0322 25.3408 37.6254C25.0308 38.2187 25.3588 38.9302 25.8286 38.9912C26.4104 39.0668 26.7784 38.6498 27.2756 37.9994" stroke="black" stroke-linecap="round" stroke-linejoin="round"/>
</svg>
