<svg width="14" height="14" viewBox="0 0 14 14" fill="none" xmlns="http://www.w3.org/2000/svg">
<path d="M7.01788 0.5C6.91409 0.500607 6.81267 0.531112 6.72577 0.587865C6.63887 0.644617 6.57016 0.725211 6.52788 0.82L4.93788 4.18C4.90225 4.26277 4.84573 4.33486 4.77386 4.3892C4.70198 4.44354 4.61722 4.47828 4.52788 4.49L0.987876 5C0.880297 5.01731 0.779768 5.06457 0.697808 5.13637C0.615848 5.20817 0.555771 5.30161 0.524461 5.40598C0.493151 5.51034 0.491873 5.62142 0.520775 5.72648C0.549677 5.83154 0.607589 5.92633 0.687876 6L3.24788 8.63C3.31198 8.69489 3.35988 8.77398 3.38768 8.86086C3.41549 8.94774 3.4224 9.03995 3.40788 9.13L2.76788 12.83C2.74969 12.9321 2.76019 13.0372 2.7982 13.1336C2.83622 13.23 2.90026 13.314 2.98319 13.3762C3.06612 13.4384 3.16469 13.4764 3.26792 13.4859C3.37115 13.4954 3.47499 13.476 3.56788 13.43L6.76788 11.69C6.84799 11.6469 6.93697 11.623 7.02788 11.62L7.01788 0.5Z" stroke="black" stroke-linecap="round" stroke-linejoin="round"/>
</svg>
