<svg width="106" height="49" viewBox="0 0 106 49" fill="none" xmlns="http://www.w3.org/2000/svg">
<rect width="25" height="25" fill="black"/>
<circle cx="51.5" cy="12.5" r="12.5" fill="black"/>
<circle cx="90.5" cy="12.5" r="12.5" fill="black"/>
<path d="M9.51172 42.2832H12.4316C12.373 43.2402 12.1094 44.0898 11.6406 44.832C11.1784 45.5742 10.5306 46.1536 9.69727 46.5703C8.87044 46.987 7.87435 47.1953 6.70898 47.1953C5.79753 47.1953 4.98047 47.0391 4.25781 46.7266C3.53516 46.4076 2.91667 45.9518 2.40234 45.3594C1.89453 44.7669 1.50716 44.0508 1.24023 43.2109C0.973307 42.3711 0.839844 41.4303 0.839844 40.3887V39.4023C0.839844 38.3607 0.976562 37.4199 1.25 36.5801C1.52995 35.7337 1.92708 35.0143 2.44141 34.4219C2.96224 33.8294 3.58398 33.3737 4.30664 33.0547C5.0293 32.7357 5.83659 32.5762 6.72852 32.5762C7.91341 32.5762 8.91276 32.791 9.72656 33.2207C10.5469 33.6504 11.1816 34.2428 11.6309 34.998C12.0866 35.7533 12.36 36.6126 12.4512 37.5762H9.52148C9.48893 37.0033 9.375 36.5182 9.17969 36.1211C8.98438 35.7174 8.68815 35.4147 8.29102 35.2129C7.90039 35.0046 7.37956 34.9004 6.72852 34.9004C6.24023 34.9004 5.8138 34.9915 5.44922 35.1738C5.08464 35.3561 4.77865 35.6328 4.53125 36.0039C4.28385 36.375 4.09831 36.8438 3.97461 37.4102C3.85742 37.9701 3.79883 38.6276 3.79883 39.3828V40.3887C3.79883 41.1243 3.85417 41.7721 3.96484 42.332C4.07552 42.8854 4.24479 43.3542 4.47266 43.7383C4.70703 44.1159 5.00651 44.4023 5.37109 44.5977C5.74219 44.7865 6.18815 44.8809 6.70898 44.8809C7.32096 44.8809 7.82552 44.7832 8.22266 44.5879C8.61979 44.3926 8.92253 44.1029 9.13086 43.7188C9.3457 43.3346 9.47266 42.8561 9.51172 42.2832ZM13.7305 41.8242V41.6191C13.7305 40.8444 13.8411 40.1315 14.0625 39.4805C14.2839 38.8229 14.6061 38.2533 15.0293 37.7715C15.4525 37.2897 15.9733 36.9154 16.5918 36.6484C17.2103 36.375 17.9199 36.2383 18.7207 36.2383C19.5215 36.2383 20.2344 36.375 20.8594 36.6484C21.4844 36.9154 22.0085 37.2897 22.4316 37.7715C22.8613 38.2533 23.1868 38.8229 23.4082 39.4805C23.6296 40.1315 23.7402 40.8444 23.7402 41.6191V41.8242C23.7402 42.5924 23.6296 43.3053 23.4082 43.9629C23.1868 44.6139 22.8613 45.1836 22.4316 45.6719C22.0085 46.1536 21.4876 46.528 20.8691 46.7949C20.2507 47.0618 19.541 47.1953 18.7402 47.1953C17.9395 47.1953 17.2266 47.0618 16.6016 46.7949C15.9831 46.528 15.459 46.1536 15.0293 45.6719C14.6061 45.1836 14.2839 44.6139 14.0625 43.9629C13.8411 43.3053 13.7305 42.5924 13.7305 41.8242ZM16.543 41.6191V41.8242C16.543 42.2669 16.582 42.6803 16.6602 43.0645C16.7383 43.4486 16.862 43.7871 17.0312 44.0801C17.207 44.3665 17.4349 44.5911 17.7148 44.7539C17.9948 44.9167 18.3366 44.998 18.7402 44.998C19.1309 44.998 19.4661 44.9167 19.7461 44.7539C20.026 44.5911 20.2507 44.3665 20.4199 44.0801C20.5892 43.7871 20.7129 43.4486 20.791 43.0645C20.8757 42.6803 20.918 42.2669 20.918 41.8242V41.6191C20.918 41.1895 20.8757 40.7858 20.791 40.4082C20.7129 40.0241 20.5859 39.6855 20.4102 39.3926C20.2409 39.0931 20.0163 38.8587 19.7363 38.6895C19.4564 38.5202 19.1178 38.4355 18.7207 38.4355C18.3236 38.4355 17.985 38.5202 17.7051 38.6895C17.4316 38.8587 17.207 39.0931 17.0312 39.3926C16.862 39.6855 16.7383 40.0241 16.6602 40.4082C16.582 40.7858 16.543 41.1895 16.543 41.6191ZM28.4375 32V47H25.6152V32H28.4375ZM33.7305 32V47H30.9082V32H33.7305ZM41.7578 44.6172V39.9102C41.7578 39.5716 41.7025 39.2819 41.5918 39.041C41.4811 38.7936 41.3086 38.6016 41.0742 38.4648C40.8464 38.3281 40.5501 38.2598 40.1855 38.2598C39.873 38.2598 39.6029 38.3151 39.375 38.4258C39.1471 38.5299 38.9714 38.6829 38.8477 38.8848C38.724 39.0801 38.6621 39.3112 38.6621 39.5781H35.8496C35.8496 39.1289 35.9538 38.7025 36.1621 38.2988C36.3704 37.8952 36.6732 37.5404 37.0703 37.2344C37.4674 36.9219 37.9395 36.6777 38.4863 36.502C39.0397 36.3262 39.6582 36.2383 40.3418 36.2383C41.1621 36.2383 41.8913 36.375 42.5293 36.6484C43.1673 36.9219 43.6686 37.332 44.0332 37.8789C44.4043 38.4258 44.5898 39.1094 44.5898 39.9297V44.4512C44.5898 45.0306 44.6257 45.5059 44.6973 45.877C44.7689 46.2415 44.873 46.5605 45.0098 46.834V47H42.168C42.0312 46.7135 41.9271 46.3555 41.8555 45.9258C41.7904 45.4896 41.7578 45.0534 41.7578 44.6172ZM42.1289 40.5645L42.1484 42.1562H40.5762C40.2051 42.1562 39.8828 42.1986 39.6094 42.2832C39.3359 42.3678 39.1113 42.4883 38.9355 42.6445C38.7598 42.7943 38.6296 42.9701 38.5449 43.1719C38.4668 43.3737 38.4277 43.5951 38.4277 43.8359C38.4277 44.0768 38.4831 44.2949 38.5938 44.4902C38.7044 44.679 38.8639 44.8288 39.0723 44.9395C39.2806 45.0436 39.5247 45.0957 39.8047 45.0957C40.2279 45.0957 40.5957 45.0111 40.9082 44.8418C41.2207 44.6725 41.4616 44.4642 41.6309 44.2168C41.8066 43.9694 41.8978 43.735 41.9043 43.5137L42.6465 44.7051C42.5423 44.972 42.3991 45.2487 42.2168 45.5352C42.041 45.8216 41.8164 46.0918 41.543 46.3457C41.2695 46.5931 40.9408 46.7982 40.5566 46.9609C40.1725 47.1172 39.7168 47.1953 39.1895 47.1953C38.5189 47.1953 37.9102 47.0618 37.3633 46.7949C36.8229 46.5215 36.3932 46.1471 36.0742 45.6719C35.7617 45.1901 35.6055 44.6432 35.6055 44.0312C35.6055 43.4779 35.7096 42.9863 35.918 42.5566C36.1263 42.127 36.4323 41.7656 36.8359 41.4727C37.2461 41.1732 37.7572 40.9486 38.3691 40.7988C38.9811 40.6426 39.6908 40.5645 40.498 40.5645H42.1289ZM46.7578 32H49.5703V44.5781L49.2871 47H46.7578V32ZM56.2598 41.6094V41.8145C56.2598 42.6022 56.1751 43.3249 56.0059 43.9824C55.8431 44.64 55.5892 45.2096 55.2441 45.6914C54.8991 46.1667 54.4694 46.5378 53.9551 46.8047C53.4473 47.0651 52.8483 47.1953 52.1582 47.1953C51.5137 47.1953 50.9538 47.0651 50.4785 46.8047C50.0098 46.5443 49.6159 46.1764 49.2969 45.7012C48.9779 45.2259 48.7207 44.6693 48.5254 44.0312C48.3301 43.3932 48.1836 42.6966 48.0859 41.9414V41.4922C48.1836 40.737 48.3301 40.0404 48.5254 39.4023C48.7207 38.7643 48.9779 38.2077 49.2969 37.7324C49.6159 37.2572 50.0098 36.8893 50.4785 36.6289C50.9473 36.3685 51.5007 36.2383 52.1387 36.2383C52.8353 36.2383 53.4408 36.3717 53.9551 36.6387C54.4759 36.8991 54.9056 37.2702 55.2441 37.752C55.5892 38.2272 55.8431 38.7936 56.0059 39.4512C56.1751 40.1022 56.2598 40.8216 56.2598 41.6094ZM53.4473 41.8145V41.6094C53.4473 41.1797 53.4147 40.776 53.3496 40.3984C53.291 40.0143 53.1868 39.679 53.0371 39.3926C52.8874 39.0996 52.6823 38.8685 52.4219 38.6992C52.168 38.5299 51.8392 38.4453 51.4355 38.4453C51.0514 38.4453 50.7259 38.5104 50.459 38.6406C50.1921 38.7708 49.9707 38.9531 49.7949 39.1875C49.6257 39.4219 49.4987 39.7018 49.4141 40.0273C49.3294 40.3464 49.2773 40.6979 49.2578 41.082V42.3613C49.2773 42.8757 49.362 43.3314 49.5117 43.7285C49.668 44.1191 49.9023 44.4284 50.2148 44.6562C50.5339 44.8776 50.9473 44.9883 51.4551 44.9883C51.8522 44.9883 52.181 44.9102 52.4414 44.7539C52.7018 44.5977 52.9036 44.3763 53.0469 44.0898C53.1966 43.8034 53.3008 43.4681 53.3594 43.084C53.418 42.6934 53.4473 42.2702 53.4473 41.8145ZM57.5586 41.8242V41.6191C57.5586 40.8444 57.6693 40.1315 57.8906 39.4805C58.112 38.8229 58.4342 38.2533 58.8574 37.7715C59.2806 37.2897 59.8014 36.9154 60.4199 36.6484C61.0384 36.375 61.748 36.2383 62.5488 36.2383C63.3496 36.2383 64.0625 36.375 64.6875 36.6484C65.3125 36.9154 65.8366 37.2897 66.2598 37.7715C66.6895 38.2533 67.015 38.8229 67.2363 39.4805C67.4577 40.1315 67.5684 40.8444 67.5684 41.6191V41.8242C67.5684 42.5924 67.4577 43.3053 67.2363 43.9629C67.015 44.6139 66.6895 45.1836 66.2598 45.6719C65.8366 46.1536 65.3158 46.528 64.6973 46.7949C64.0788 47.0618 63.3691 47.1953 62.5684 47.1953C61.7676 47.1953 61.0547 47.0618 60.4297 46.7949C59.8112 46.528 59.2871 46.1536 58.8574 45.6719C58.4342 45.1836 58.112 44.6139 57.8906 43.9629C57.6693 43.3053 57.5586 42.5924 57.5586 41.8242ZM60.3711 41.6191V41.8242C60.3711 42.2669 60.4102 42.6803 60.4883 43.0645C60.5664 43.4486 60.6901 43.7871 60.8594 44.0801C61.0352 44.3665 61.263 44.5911 61.543 44.7539C61.8229 44.9167 62.1647 44.998 62.5684 44.998C62.959 44.998 63.2943 44.9167 63.5742 44.7539C63.8542 44.5911 64.0788 44.3665 64.248 44.0801C64.4173 43.7871 64.541 43.4486 64.6191 43.0645C64.7038 42.6803 64.7461 42.2669 64.7461 41.8242V41.6191C64.7461 41.1895 64.7038 40.7858 64.6191 40.4082C64.541 40.0241 64.4141 39.6855 64.2383 39.3926C64.069 39.0931 63.8444 38.8587 63.5645 38.6895C63.2845 38.5202 62.946 38.4355 62.5488 38.4355C62.1517 38.4355 61.8132 38.5202 61.5332 38.6895C61.2598 38.8587 61.0352 39.0931 60.8594 39.3926C60.6901 39.6855 60.5664 40.0241 60.4883 40.4082C60.4102 40.7858 60.3711 41.1895 60.3711 41.6191ZM75 44.6172V39.9102C75 39.5716 74.9447 39.2819 74.834 39.041C74.7233 38.7936 74.5508 38.6016 74.3164 38.4648C74.0885 38.3281 73.7923 38.2598 73.4277 38.2598C73.1152 38.2598 72.8451 38.3151 72.6172 38.4258C72.3893 38.5299 72.2135 38.6829 72.0898 38.8848C71.9661 39.0801 71.9043 39.3112 71.9043 39.5781H69.0918C69.0918 39.1289 69.196 38.7025 69.4043 38.2988C69.6126 37.8952 69.9154 37.5404 70.3125 37.2344C70.7096 36.9219 71.1816 36.6777 71.7285 36.502C72.2819 36.3262 72.9004 36.2383 73.584 36.2383C74.4043 36.2383 75.1335 36.375 75.7715 36.6484C76.4095 36.9219 76.9108 37.332 77.2754 37.8789C77.6465 38.4258 77.832 39.1094 77.832 39.9297V44.4512C77.832 45.0306 77.8678 45.5059 77.9395 45.877C78.0111 46.2415 78.1152 46.5605 78.252 46.834V47H75.4102C75.2734 46.7135 75.1693 46.3555 75.0977 45.9258C75.0326 45.4896 75 45.0534 75 44.6172ZM75.3711 40.5645L75.3906 42.1562H73.8184C73.4473 42.1562 73.125 42.1986 72.8516 42.2832C72.5781 42.3678 72.3535 42.4883 72.1777 42.6445C72.002 42.7943 71.8717 42.9701 71.7871 43.1719C71.709 43.3737 71.6699 43.5951 71.6699 43.8359C71.6699 44.0768 71.7253 44.2949 71.8359 44.4902C71.9466 44.679 72.1061 44.8288 72.3145 44.9395C72.5228 45.0436 72.7669 45.0957 73.0469 45.0957C73.4701 45.0957 73.8379 45.0111 74.1504 44.8418C74.4629 44.6725 74.7038 44.4642 74.873 44.2168C75.0488 43.9694 75.14 43.735 75.1465 43.5137L75.8887 44.7051C75.7845 44.972 75.6413 45.2487 75.459 45.5352C75.2832 45.8216 75.0586 46.0918 74.7852 46.3457C74.5117 46.5931 74.1829 46.7982 73.7988 46.9609C73.4147 47.1172 72.959 47.1953 72.4316 47.1953C71.7611 47.1953 71.1523 47.0618 70.6055 46.7949C70.0651 46.5215 69.6354 46.1471 69.3164 45.6719C69.0039 45.1901 68.8477 44.6432 68.8477 44.0312C68.8477 43.4779 68.9518 42.9863 69.1602 42.5566C69.3685 42.127 69.6745 41.7656 70.0781 41.4727C70.4883 41.1732 70.9993 40.9486 71.6113 40.7988C72.2233 40.6426 72.9329 40.5645 73.7402 40.5645H75.3711ZM82.8125 38.7383V47H80V36.4336H82.6465L82.8125 38.7383ZM85.9961 36.3652L85.9473 38.9727C85.8105 38.9531 85.6445 38.9368 85.4492 38.9238C85.2604 38.9043 85.0879 38.8945 84.9316 38.8945C84.5345 38.8945 84.1895 38.9466 83.8965 39.0508C83.61 39.1484 83.3691 39.2949 83.1738 39.4902C82.985 39.6855 82.8418 39.9232 82.7441 40.2031C82.653 40.4831 82.6009 40.8021 82.5879 41.1602L82.0215 40.9844C82.0215 40.3008 82.0898 39.6725 82.2266 39.0996C82.3633 38.5202 82.5618 38.0156 82.8223 37.5859C83.0892 37.1562 83.4147 36.8242 83.7988 36.5898C84.1829 36.3555 84.6224 36.2383 85.1172 36.2383C85.2734 36.2383 85.4329 36.2513 85.5957 36.2773C85.7585 36.2969 85.8919 36.3262 85.9961 36.3652ZM93.3691 44.6953V32H96.2012V47H93.6523L93.3691 44.6953ZM86.6895 41.8438V41.6387C86.6895 40.8314 86.7806 40.099 86.9629 39.4414C87.1452 38.7773 87.4121 38.2077 87.7637 37.7324C88.1152 37.2572 88.5482 36.8893 89.0625 36.6289C89.5768 36.3685 90.1628 36.2383 90.8203 36.2383C91.4388 36.2383 91.9792 36.3685 92.4414 36.6289C92.9102 36.8893 93.3073 37.2604 93.6328 37.7422C93.9648 38.2174 94.2318 38.7806 94.4336 39.4316C94.6354 40.0762 94.7819 40.7826 94.873 41.5508V42C94.7819 42.7357 94.6354 43.4193 94.4336 44.0508C94.2318 44.6823 93.9648 45.2357 93.6328 45.7109C93.3073 46.1797 92.9102 46.5443 92.4414 46.8047C91.9727 47.0651 91.4258 47.1953 90.8008 47.1953C90.1432 47.1953 89.5573 47.0618 89.043 46.7949C88.5352 46.528 88.1055 46.1536 87.7539 45.6719C87.4089 45.1901 87.1452 44.6237 86.9629 43.9727C86.7806 43.3216 86.6895 42.612 86.6895 41.8438ZM89.502 41.6387V41.8438C89.502 42.2799 89.5345 42.6868 89.5996 43.0645C89.6712 43.4421 89.7852 43.7773 89.9414 44.0703C90.1042 44.3568 90.3125 44.5814 90.5664 44.7441C90.8268 44.9004 91.1426 44.9785 91.5137 44.9785C91.9954 44.9785 92.3926 44.8711 92.7051 44.6562C93.0176 44.4349 93.2552 44.1322 93.418 43.748C93.5872 43.3639 93.6849 42.9212 93.7109 42.4199V41.1406C93.6914 40.7305 93.6328 40.3626 93.5352 40.0371C93.444 39.7051 93.3073 39.4219 93.125 39.1875C92.9492 38.9531 92.7279 38.7708 92.4609 38.6406C92.2005 38.5104 91.8913 38.4453 91.5332 38.4453C91.1686 38.4453 90.8561 38.5299 90.5957 38.6992C90.3353 38.862 90.1237 39.0866 89.9609 39.373C89.8047 39.6595 89.6875 39.998 89.6094 40.3887C89.5378 40.7728 89.502 41.1895 89.502 41.6387Z" fill="black"/>
</svg>
